<svg width="1335" height="1642" viewBox="0 0 1335 1642" fill="none" xmlns="http://www.w3.org/2000/svg">
<path d="M1015.73 1197.33C1012.7 1199.5 1009.23 1201.67 1006.2 1203.83C1002.73 1206 999.698 1208.17 996.231 1209.9C993.198 1211.63 990.598 1213.37 987.564 1215.1C987.131 1215.53 986.698 1215.53 986.264 1215.97C976.298 1222.03 965.898 1227.67 955.498 1232.87C952.464 1234.6 948.998 1236.33 945.964 1237.63C945.964 1237.63 945.531 1238.07 945.098 1238.07C941.631 1239.8 938.164 1241.53 934.698 1243.27C927.764 1246.73 920.398 1249.77 913.464 1252.8C909.998 1254.53 906.098 1255.83 902.631 1257.13C899.164 1258.43 895.264 1260.17 891.798 1261.47C888.331 1262.77 884.431 1264.5 880.964 1265.8C880.964 1265.8 880.964 1265.8 880.531 1265.8C877.064 1267.1 873.164 1268.4 869.698 1269.7C861.898 1272.3 853.664 1274.9 845.864 1277.5C843.264 1278.37 840.231 1279.23 837.631 1280.1C829.398 1282.7 821.164 1284.87 812.931 1286.6C809.898 1287.47 806.864 1287.9 803.398 1288.77C795.598 1290.5 787.364 1292.23 779.564 1293.97C777.831 1294.4 776.531 1294.4 774.798 1294.83C772.198 1295.27 769.164 1295.7 766.564 1296.13C762.664 1296.57 759.198 1297.43 755.298 1297.87C753.564 1298.3 751.831 1298.3 750.098 1298.73C747.931 1299.17 745.331 1299.6 742.731 1299.6C735.798 1300.47 728.431 1301.33 721.498 1302.2C719.331 1302.63 716.731 1302.63 714.564 1303.07H714.131C711.098 1303.5 708.064 1303.5 705.031 1303.93C701.998 1304.37 698.964 1304.37 695.931 1304.37C694.198 1304.37 692.031 1304.8 690.298 1304.8C686.831 1304.8 683.798 1305.23 680.764 1305.23C676.431 1305.23 672.531 1305.67 668.198 1305.67C663.864 1305.67 659.964 1305.67 655.631 1305.67C652.598 1305.67 649.564 1305.67 646.531 1305.67C464.098 1303.07 299.431 1225.5 182.431 1102.43C182.431 1102.43 182.431 1102 181.998 1102C195.431 1075.57 245.264 1027.9 297.264 988.466C363.131 938.632 456.298 907.866 456.298 907.866C456.298 907.866 517.398 897.899 744.031 945.132C916.931 981.532 990.598 1129.3 1015.73 1197.33Z" fill="#FEE4BF"/>
<path d="M792.131 1065.16C783.031 1109.8 724.098 1136.23 624.865 1096.36C503.098 1046.96 456.298 907.865 456.298 907.865C449.798 808.198 434.631 722.832 434.631 722.832C575.465 710.698 741.865 875.365 741.865 875.365L760.931 956.832C762.665 963.765 766.131 969.832 771.331 974.165C780.431 989.765 798.198 1036.56 792.131 1065.16Z" fill="#FEE4BF"/>
<path d="M771.331 974.599C688.564 970.266 627.464 958.133 562.031 840.699C617.498 889.666 682.931 908.299 751.831 916.966L760.931 956.832C762.664 964.199 766.131 970.266 771.331 974.599Z" fill="#EFBDA5"/>
<path d="M942.498 452.432C950.298 488.832 954.198 518.298 932.964 615.365C911.731 712.432 952.464 809.498 850.198 898.332C781.298 958.132 660.831 969.398 564.631 903.965C532.131 881.865 502.231 851.098 477.964 810.798C458.898 779.165 436.798 749.265 412.098 721.965C377.864 684.698 336.698 609.732 357.064 477.132C389.998 261.332 603.631 236.632 729.731 260.465C855.831 284.298 921.264 356.232 942.498 452.432Z" fill="#FEE4BF"/>
<path d="M527.798 621.865C527.798 621.865 514.364 556.865 451.098 564.665C396.498 571.598 377.431 702.465 501.364 738.865" fill="#FEE4BF"/>
<path d="M497.464 679.499C497.464 679.499 481.864 669.532 483.598 652.199C486.198 631.832 483.598 619.266 474.064 615.366C450.231 605.399 445.464 633.132 446.331 636.599" stroke="#423232" stroke-width="13" stroke-miterlimit="10" stroke-linecap="round" stroke-linejoin="round"/>
<path d="M828.098 721.531C828.098 721.531 844.565 722.398 860.165 703.765C868.831 693.365 876.198 680.365 871.431 676.465C866.665 672.131 788.231 684.265 783.031 694.665C777.831 705.065 808.165 721.531 828.098 721.531Z" fill="#EFBDA5"/>
<path d="M841.098 575.932C841.098 575.932 841.964 617.099 868.398 663.032C880.098 683.399 862.331 716.765 823.764 722.399" stroke="#423232" stroke-width="13" stroke-miterlimit="10" stroke-linecap="round" stroke-linejoin="round"/>
<path opacity="0.42" d="M606.231 743.631C630.881 743.631 650.864 727.14 650.864 706.797C650.864 686.455 630.881 669.964 606.231 669.964C581.581 669.964 561.598 686.455 561.598 706.797C561.598 727.14 581.581 743.631 606.231 743.631Z" fill="#F2A5B2"/>
<path opacity="0.42" d="M926.031 670.832C924.731 695.098 925.164 718.932 923.431 742.765C904.364 738.432 890.498 724.132 890.498 707.232C890.498 689.032 905.664 674.298 926.031 670.832Z" fill="#F2A5B2"/>
<path d="M905.233 1030.03C872.299 1000.13 828.966 965.034 758.766 946.834C681.199 926.467 640.899 970.234 578.933 964.167C545.566 960.701 490.966 895.701 454.133 905.234C408.633 917.367 358.366 941.634 297.699 983.667C284.699 992.767 173.333 1067.3 134.766 1189.07C99.6662 1299.13 90.9995 1450.8 90.1328 1501.07H1077.27C1077.7 1189.93 939.466 1061.23 905.233 1030.03Z" fill="#FFD6C2"/>
<path d="M439.833 956.367C439.833 956.367 431.599 884.434 438.966 861.467C439.833 858.434 448.933 853.234 448.933 853.234C448.933 853.234 448.933 893.534 546.433 921.267C649.133 950.3 763.533 941.634 784.766 932.534C784.766 932.534 785.199 992.334 773.933 1014.87C756.599 1049.53 618.799 1042.17 535.166 1013.57C461.933 988.434 439.833 956.367 439.833 956.367Z" fill="#FFD6C2"/>
<g opacity="0.25">
<g opacity="0.25">
<g opacity="0.25">
<g opacity="0.25">
<path opacity="0.25" d="M36.3995 1010.97C124.366 962.433 112.666 1012.7 240.499 988C295.099 977.6 356.633 929.933 435.066 926.466C494.866 923.866 561.166 963.733 634.833 968.933C696.366 973.266 767.433 941.633 838.499 953.333C900.466 963.3 957.666 1015.3 1027 1032.2" stroke="#6D5F5E" stroke-width="21.7052" stroke-miterlimit="10" stroke-linecap="round" stroke-linejoin="round"/>
</g>
<g opacity="0.25">
<path opacity="0.25" d="M38.1328 1060.37C133.033 1020.93 117.866 1070.77 247.866 1049.53C304.633 1040.43 368.766 992.334 448.066 988.867C510.033 986.267 578.066 1026.57 653.033 1030.47C716.733 1033.93 788.666 999.7 861.033 1009.67C925.166 1018.33 985.399 1070.33 1056.03 1085.5" stroke="#6D5F5E" stroke-width="21.7052" stroke-miterlimit="10" stroke-linecap="round" stroke-linejoin="round"/>
</g>
<g opacity="0.25">
<path opacity="0.25" d="M39.8662 1109.77C140.399 1078.57 122.199 1127.53 254.799 1110.2C313.299 1102.4 380.033 1054.3 460.633 1050.83C524.333 1048.23 594.966 1089.4 670.799 1092.43C736.666 1095.03 809.466 1058.2 883.566 1066.43C949.866 1073.8 1013.13 1125.37 1085.5 1138.37" stroke="#6D5F5E" stroke-width="21.7052" stroke-miterlimit="10" stroke-linecap="round" stroke-linejoin="round"/>
</g>
<g opacity="0.25">
<path opacity="0.25" d="M41.5995 1159.17C146.899 1135.77 126.533 1183.87 261.733 1170C322.399 1163.5 391.733 1115.4 473.633 1112.37C539.499 1109.77 611.866 1152.23 689.433 1153.97C757.466 1155.7 831.566 1116.7 906.966 1123.2C975.866 1129.27 1042.17 1179.97 1115.83 1191.23" stroke="#6D5F5E" stroke-width="21.7052" stroke-miterlimit="10" stroke-linecap="round" stroke-linejoin="round"/>
</g>
<g opacity="0.25">
<path opacity="0.25" d="M42.8995 1209C152.099 1192.1 129.999 1240.2 267.366 1229.37C330.199 1224.6 402.133 1176.07 485.333 1173.47C553.366 1171.3 627.899 1214.63 706.333 1215.93C776.533 1216.8 851.933 1175.63 928.633 1180.4C999.699 1184.73 1069.47 1235 1144.87 1243.67" stroke="#6D5F5E" stroke-width="21.7052" stroke-miterlimit="10" stroke-linecap="round" stroke-linejoin="round"/>
</g>
<g opacity="0.25">
<path opacity="0.25" d="M43.7662 1258.83C156.433 1248 133.033 1295.67 272.566 1288.3C337.566 1284.83 412.099 1236.73 497.033 1235C567.233 1233.27 643.499 1277.9 723.666 1278.33C796.033 1278.77 873.166 1235 950.733 1238.47C1024.83 1241.5 1097.63 1290.9 1173.9 1296.53" stroke="#6D5F5E" stroke-width="21.7052" stroke-miterlimit="10" stroke-linecap="round" stroke-linejoin="round"/>
</g>
<g opacity="0.25">
<path opacity="0.25" d="M45.0662 1309.1C160.766 1303.9 136.066 1351.13 278.633 1347.23C345.366 1345.5 422.933 1297.4 509.599 1296.1C581.966 1295.23 660.399 1340.73 741.866 1340.73C816.833 1340.73 895.266 1295.23 974.133 1296.53C1050.83 1297.83 1127.1 1346.37 1204.67 1349.4" stroke="#6D5F5E" stroke-width="21.7052" stroke-miterlimit="10" stroke-linecap="round" stroke-linejoin="round"/>
</g>
<g opacity="0.25">
<path opacity="0.25" d="M45.9328 1358.93C164.666 1358.5 138.666 1406.17 283.833 1405.3C352.733 1404.87 432.899 1357.2 521.299 1356.77C595.833 1356.33 675.999 1403.57 759.199 1403.57C836.766 1403.13 916.499 1355.47 996.666 1355.03C1076.4 1354.6 1156.13 1401.83 1234.57 1401.83" stroke="#6D5F5E" stroke-width="21.7052" stroke-miterlimit="10" stroke-linecap="round" stroke-linejoin="round"/>
</g>
<g opacity="0.25">
<path opacity="0.25" d="M46.7995 1408.77C168.566 1412.67 141.266 1460.33 289.033 1462.93C359.666 1464.23 442.866 1416.57 532.999 1417.43C609.699 1417.87 692.033 1466.83 776.533 1466.4C856.699 1465.97 937.733 1416.13 1019.2 1414.4C1101.53 1412.67 1185.17 1458.6 1264.03 1454.7" stroke="#6D5F5E" stroke-width="21.7052" stroke-miterlimit="10" stroke-linecap="round" stroke-linejoin="round"/>
</g>
<g opacity="0.25">
<path opacity="0.25" d="M47.6662 1459.03C172.033 1467.27 143.866 1515.37 294.233 1521C367.033 1523.6 453.266 1476.37 544.699 1478.1C623.999 1479.4 707.633 1530.1 793.866 1529.23C876.199 1528.8 959.399 1477.23 1041.73 1473.77C1127.1 1470.3 1214.63 1514.93 1293.93 1507.13" stroke="#6D5F5E" stroke-width="21.7052" stroke-miterlimit="10" stroke-linecap="round" stroke-linejoin="round"/>
</g>
<g opacity="0.25">
<path opacity="0.25" d="M48.5328 1509.3C175.499 1521 146.033 1569.53 299.433 1578.2C373.966 1582.53 463.233 1535.73 556.399 1538.33C637.866 1540.5 723.666 1592.93 811.199 1592.07C896.133 1591.63 981.066 1538.33 1064.7 1533.57C1153.53 1528.37 1244.53 1571.27 1323.83 1560" stroke="#6D5F5E" stroke-width="21.7052" stroke-miterlimit="10" stroke-linecap="round" stroke-linejoin="round"/>
</g>
</g>
</g>
</g>
<path d="M315.466 975C332.366 994.067 401.699 1076.83 426.399 1170.43L482.299 1179.53C482.299 1179.53 422.499 1030.47 340.166 957.667C336.699 954.634 331.499 954.2 327.166 955.934C323.699 957.667 319.366 960.7 315.466 965.9C312.866 968.934 313.299 972.834 315.466 975Z" fill="#423232"/>
<path d="M844.566 1150.93C844.566 1150.93 851.933 1039.13 796.033 960.267C796.033 960.267 799.499 956.8 818.999 966.333C832.866 972.833 873.599 1028.73 877.499 1141.83C877.933 1141.83 849.333 1151.37 844.566 1150.93Z" fill="#423232"/>
<path d="M413.399 1092.87C413.399 1092.87 733.633 1178.23 871.866 1083.77C871.866 1083.77 943.799 1225.47 971.966 1501.07H354.899C354.899 1501.07 405.166 1434.77 413.399 1092.87Z" fill="#423232"/>
<path d="M471.899 1198.6C483.387 1198.6 492.699 1189.29 492.699 1177.8C492.699 1166.31 483.387 1157 471.899 1157C460.412 1157 451.099 1166.31 451.099 1177.8C451.099 1189.29 460.412 1198.6 471.899 1198.6Z" fill="white"/>
<path d="M856.699 1165.67C866.751 1165.67 874.899 1157.52 874.899 1147.47C874.899 1137.41 866.751 1129.27 856.699 1129.27C846.648 1129.27 838.499 1137.41 838.499 1147.47C838.499 1157.52 846.648 1165.67 856.699 1165.67Z" fill="white"/>
<path d="M743.042 526.549C752.575 527.849 759.942 517.883 756.475 508.349C754.742 503.149 751.709 498.383 746.942 495.349C732.209 486.249 677.175 485.383 648.142 506.183C622.575 525.249 699.709 520.482 743.042 526.549Z" fill="#423232"/>
<path d="M863.074 531.316C855.274 531.316 850.508 521.35 854.408 513.116C856.574 508.783 859.607 504.883 863.941 502.716C877.374 496.216 913.341 500.116 929.374 522.216C943.674 541.716 899.041 530.883 863.074 531.316Z" fill="#423232"/>
<path d="M727.876 581.149C694.076 595.449 656.376 577.682 656.376 577.682" stroke="#423232" stroke-width="13" stroke-miterlimit="10" stroke-linecap="round" stroke-linejoin="round"/>
<path d="M899.042 589.816C899.042 589.816 875.642 604.116 846.175 587.216" stroke="#423232" stroke-width="13" stroke-miterlimit="10" stroke-linecap="round" stroke-linejoin="round"/>
<path d="M820.997 777.919C820.997 777.919 765.964 752.352 739.531 766.219" stroke="#423232" stroke-width="13" stroke-miterlimit="10" stroke-linecap="round" stroke-linejoin="round"/>
<path d="M653.719 247.359C398.052 236.525 322.652 457.525 344.319 584.059C365.552 706.259 443.119 762.592 443.119 762.592L495.552 744.392C495.552 744.392 475.185 737.459 455.685 723.159C388.519 672.025 409.319 579.292 455.252 573.225C501.185 567.592 520.685 600.525 528.052 618.725C552.319 538.559 518.085 518.625 552.319 461.859C659.352 346.159 735.619 419.392 786.319 439.325C832.685 457.525 862.585 434.992 888.152 411.159C903.319 396.859 924.985 400.759 924.985 400.759C924.985 400.759 895.519 257.759 653.719 247.359Z" fill="#99807F"/>
<path d="M550.417 522.264C550.417 522.264 381.85 533.964 328.117 520.098C328.117 520.098 336.783 327.698 398.75 248.398C460.717 169.098 744.983 168.664 840.75 204.198C927.417 236.698 938.683 427.364 938.683 427.364L550.417 522.264Z" fill="#3F3C3C"/>
<path d="M938.683 427.364L566.883 518.364C564.717 468.531 559.517 315.131 585.083 257.064C615.85 187.298 794.817 187.731 869.783 223.264C929.583 281.764 938.683 427.364 938.683 427.364Z" fill="white"/>
<path d="M1022.32 507.531C1022.32 559.964 937.383 536.564 937.383 536.564C941.283 499.731 937.817 479.364 932.617 456.398C930.883 449.464 929.15 442.531 927.417 435.598C955.15 432.564 975.95 440.364 990.683 451.631C1012.78 468.964 1022.32 494.964 1022.32 507.531Z" fill="#BAAEA6"/>
<path d="M756.683 341.564C785.163 341.564 808.25 318.477 808.25 289.997C808.25 261.518 785.163 238.43 756.683 238.43C728.204 238.43 705.117 261.518 705.117 289.997C705.117 318.477 728.204 341.564 756.683 341.564Z" fill="white"/>
<path d="M808.25 289.997C808.25 313.83 792.217 333.33 770.55 339.83C748.883 333.763 732.85 313.83 732.85 289.997C732.85 266.163 748.883 246.23 770.55 240.163C792.217 246.663 808.25 266.597 808.25 289.997Z" fill="#6BD5E1"/>
<path d="M835.983 289.997C835.983 318.597 813.017 341.564 784.417 341.564C783.117 341.564 781.817 341.564 780.517 341.564C779.65 341.564 778.35 341.564 777.483 341.131C776.617 341.131 775.317 340.697 774.017 340.697C772.717 340.264 771.85 340.264 770.55 339.831C792.217 333.764 808.25 313.831 808.25 289.997C808.25 266.164 792.217 246.664 770.55 240.164C771.417 239.731 772.717 239.731 774.017 239.297C774.883 239.297 775.75 238.864 776.617 238.864C777.05 238.864 777.483 238.864 778.35 238.864C779.217 238.864 779.65 238.864 780.517 238.864C781.817 238.864 783.117 238.864 784.85 238.864C813.017 238.431 835.983 261.397 835.983 289.997Z" fill="#FFD98E"/>
<path d="M756.683 242.764C782.683 242.764 803.917 263.997 803.917 289.997C803.917 315.997 782.683 337.23 756.683 337.23C730.683 337.23 709.45 315.997 709.45 289.997C709.45 263.997 730.683 242.764 756.683 242.764ZM756.683 238.43C728.083 238.43 705.117 261.397 705.117 289.997C705.117 318.597 728.083 341.564 756.683 341.564C785.283 341.564 808.25 318.597 808.25 289.997C808.25 261.397 784.85 238.43 756.683 238.43Z" fill="#4C4C4C"/>
<path d="M567.75 479.364C567.75 479.364 412.617 488.031 336.35 483.698C332.017 483.264 332.017 479.798 332.017 475.464L332.45 467.664C332.45 467.664 324.217 469.831 320.75 481.098C319.017 487.164 317.717 501.898 318.15 510.998C318.583 516.631 322.483 521.398 328.117 522.264C353.25 526.598 437.75 536.998 550.417 522.698C550.417 522.264 565.15 497.564 567.75 479.364Z" fill="#332E2E"/>
<path d="M990.25 451.631C972.05 437.764 944.75 429.531 907.483 439.064C886.25 444.698 861.117 455.964 832.517 475.031C692.55 569.931 550.417 522.264 550.417 522.264C550.417 522.264 554.75 501.031 570.35 475.031C593.317 436.898 640.983 388.364 736.75 382.298C820.817 377.098 882.783 393.131 924.817 411.331C966.417 429.531 988.083 449.464 990.25 451.631Z" fill="white"/>
<path d="M570.35 475.031C593.317 436.898 640.983 388.364 736.75 382.298C820.817 377.098 882.783 393.131 924.817 411.331" stroke="#E8E7E6" stroke-width="13" stroke-miterlimit="10" stroke-linecap="round" stroke-linejoin="round"/>
</svg>
