<svg width="1315" height="1642" viewBox="0 0 1315 1642" fill="none" xmlns="http://www.w3.org/2000/svg">
<path d="M299.27 1197.33C302.303 1199.5 305.77 1201.67 308.803 1203.83C312.27 1206 315.303 1208.17 318.77 1209.9C321.803 1211.63 324.403 1213.37 327.436 1215.1C327.87 1215.53 328.303 1215.53 328.736 1215.97C338.703 1222.03 349.103 1227.67 359.503 1232.87C362.536 1234.6 366.003 1236.33 369.036 1237.63C369.036 1237.63 369.47 1238.07 369.903 1238.07C373.37 1239.8 376.836 1241.53 380.303 1243.27C387.236 1246.73 394.603 1249.77 401.536 1252.8C405.003 1254.53 408.903 1255.83 412.37 1257.13C415.836 1258.43 419.736 1260.17 423.203 1261.47C426.67 1262.77 430.57 1264.5 434.036 1265.8C434.036 1265.8 434.036 1265.8 434.47 1265.8C437.936 1267.1 441.836 1268.4 445.303 1269.7C453.103 1272.3 461.336 1274.9 469.136 1277.5C471.736 1278.37 474.77 1279.23 477.37 1280.1C485.603 1282.7 493.836 1284.87 502.069 1286.6C505.103 1287.47 508.136 1287.9 511.603 1288.77C519.403 1290.5 527.636 1292.23 535.436 1293.97C537.17 1294.4 538.47 1294.4 540.203 1294.83C542.803 1295.27 545.836 1295.7 548.436 1296.13C552.336 1296.57 555.803 1297.43 559.703 1297.87C561.436 1298.3 563.169 1298.3 564.903 1298.73C567.069 1299.17 569.67 1299.6 572.27 1299.6C579.203 1300.47 586.57 1301.33 593.503 1302.2C595.67 1302.63 598.27 1302.63 600.436 1303.07H600.87C603.903 1303.5 606.936 1303.5 609.97 1303.93C613.003 1304.37 616.036 1304.37 619.07 1304.37C620.803 1304.37 622.969 1304.8 624.703 1304.8C628.169 1304.8 631.203 1305.23 634.236 1305.23C638.57 1305.23 642.47 1305.67 646.803 1305.67C651.136 1305.67 655.036 1305.67 659.369 1305.67C662.403 1305.67 665.436 1305.67 668.47 1305.67C850.903 1303.07 1015.57 1225.5 1132.57 1102.43C1132.57 1102.43 1132.57 1102 1133 1102C1119.57 1075.57 1069.74 1027.9 1017.74 988.466C951.869 938.633 858.703 907.866 858.703 907.866C858.703 907.866 797.603 897.899 570.97 945.133C398.07 981.533 324.403 1129.3 299.27 1197.33Z" fill="#FEE4BF"/>
<path d="M522.869 1065.17C531.969 1109.8 590.903 1136.23 690.136 1096.37C811.903 1046.97 858.703 907.865 858.703 907.865C865.203 808.199 880.369 722.832 880.369 722.832C739.536 710.699 573.136 875.365 573.136 875.365L554.069 956.832C552.336 963.765 548.869 969.832 543.669 974.165C534.569 989.765 516.803 1036.57 522.869 1065.17Z" fill="#FEE4BF"/>
<path d="M543.67 974.6C626.436 970.266 687.536 958.133 752.97 840.7C697.503 889.666 632.07 908.3 563.17 916.966L554.07 956.833C552.336 964.2 548.87 970.266 543.67 974.6Z" fill="#EFBDA5"/>
<path d="M372.503 452.432C364.703 488.832 360.803 518.299 382.036 615.365C403.27 712.432 362.536 809.499 464.803 898.332C533.703 958.132 654.17 969.399 750.369 903.965C782.869 881.865 812.77 851.099 837.036 810.799C856.103 779.165 878.203 749.265 902.903 721.965C937.136 684.699 978.303 609.732 957.936 477.132C925.003 261.332 711.37 236.632 585.27 260.465C459.17 284.299 393.736 356.232 372.503 452.432Z" fill="#FEE4BF"/>
<path d="M787.203 621.865C787.203 621.865 800.636 556.865 863.903 564.665C918.503 571.599 937.57 702.465 813.636 738.865" fill="#FEE4BF"/>
<path d="M817.536 679.499C817.536 679.499 833.136 669.532 831.402 652.199C828.802 631.832 831.402 619.266 840.936 615.366C864.769 605.399 869.536 633.132 868.669 636.599" stroke="#423232" stroke-width="13" stroke-miterlimit="10" stroke-linecap="round" stroke-linejoin="round"/>
<path d="M486.903 721.532C486.903 721.532 470.437 722.398 454.837 703.765C446.17 693.365 438.803 680.365 443.57 676.465C448.337 672.132 526.77 684.265 531.97 694.665C537.17 705.065 506.837 721.532 486.903 721.532Z" fill="#EFBDA5"/>
<path d="M473.902 575.932C473.902 575.932 473.036 617.099 446.602 663.032C434.902 683.399 452.669 716.765 491.236 722.399" stroke="#423232" stroke-width="13" stroke-miterlimit="10" stroke-linecap="round" stroke-linejoin="round"/>
<path opacity="0.42" d="M708.769 743.631C684.119 743.631 664.136 727.14 664.136 706.798C664.136 686.455 684.119 669.964 708.769 669.964C733.419 669.964 753.402 686.455 753.402 706.798C753.402 727.14 733.419 743.631 708.769 743.631Z" fill="#F2A5B2"/>
<path opacity="0.42" d="M388.969 670.832C390.269 695.099 389.836 718.932 391.569 742.765C410.636 738.432 424.503 724.132 424.503 707.232C424.503 689.032 409.336 674.299 388.969 670.832Z" fill="#F2A5B2"/>
<path d="M148.468 1467.78L1246.1 1443.51C1257.37 1167.05 1143.83 1021.01 1099.2 992.413C1015.57 938.246 906.801 922.213 855.668 917.446C842.668 949.513 793.268 1054.81 690.568 1096.41C591.334 1136.71 532.401 1109.85 523.301 1065.21C517.668 1036.61 535.434 989.813 544.534 974.646C549.734 970.313 553.201 963.813 554.934 957.313L558.401 943.013C551.034 941.28 543.668 939.546 536.301 936.946C354.734 957.313 281.068 1006.71 237.734 1091.21C193.101 1178.31 148.468 1467.78 148.468 1467.78Z" fill="#474E51"/>
<path d="M1053.7 1466.05C1053.7 1466.05 1059.33 1325.65 1064.97 1299.65" stroke="#544D4D" stroke-width="13" stroke-miterlimit="10" stroke-linecap="round" stroke-linejoin="round"/>
<path d="M285.835 1466.05C285.835 1466.05 298.835 1378.95 298.835 1363.78C298.835 1349.05 287.568 1300.51 285.835 1258.05" stroke="#544D4D" stroke-width="13" stroke-miterlimit="10" stroke-linecap="round" stroke-linejoin="round"/>
<path d="M925.868 1356.85V1305.28L801.501 1355.98C801.501 1355.98 902.035 1358.58 925.868 1356.85Z" fill="white"/>
<path d="M769.434 1354.25C769.434 1354.25 892.068 1362.48 957.934 1354.25" stroke="#544D4D" stroke-width="14.8482" stroke-miterlimit="10" stroke-linecap="round" stroke-linejoin="round"/>
<path d="M629.468 1189.15L645.068 1512.41C645.068 1512.41 507.701 1606.01 507.701 1603.41C507.701 1600.81 442.701 1487.28 442.701 1487.28L544.101 1176.15C544.101 1176.15 557.101 1189.58 629.468 1189.15Z" fill="#D85656"/>
<path d="M598.268 1085.15C598.268 1085.15 657.635 1141.05 665.435 1155.78C673.235 1170.51 632.068 1193.91 632.068 1193.91C632.068 1193.91 565.768 1207.78 535.868 1180.91C535.868 1180.91 518.968 1162.28 522.435 1144.51C525.468 1127.18 598.268 1085.15 598.268 1085.15Z" fill="#EA6363"/>
<path d="M868.234 866.315L862.601 865.015C846.568 916.581 744.734 1038.35 598.268 1085.15L689.268 1199.98C695.334 1207.78 706.168 1209.08 713.968 1203.45C751.234 1175.71 850.901 1094.25 891.634 990.248C900.301 968.581 902.034 944.748 897.701 922.215L892.068 891.448C889.901 878.881 880.368 868.915 868.234 866.315Z" fill="white"/>
<path d="M476.935 1160.55C479.535 1174.85 496.435 1180.48 507.268 1170.51L598.701 1085.15C598.701 1085.15 545.401 1034.45 558.401 942.582C540.635 938.682 523.735 933.048 508.135 925.682C507.701 926.548 501.635 938.248 494.701 957.748C479.968 998.048 461.335 1072.15 476.935 1160.55Z" fill="white"/>
<path d="M599.816 586.765C599.816 586.765 630.15 587.198 660.916 564.231" stroke="#423232" stroke-width="13" stroke-miterlimit="10" stroke-linecap="round" stroke-linejoin="round"/>
<path d="M471.116 593.697C471.116 593.697 439.916 588.064 430.816 575.93" stroke="#423232" stroke-width="13" stroke-miterlimit="10" stroke-linecap="round" stroke-linejoin="round"/>
<path d="M579.015 553.397C570.782 558.164 560.382 551.664 559.949 541.697C559.949 536.497 560.815 530.864 564.282 526.097C574.682 512.231 625.382 490.997 660.482 500.097C690.815 507.897 616.715 531.731 579.015 553.397Z" fill="#423232"/>
<path d="M445.981 558.598C452.048 563.364 462.014 557.731 463.314 548.631C464.181 543.864 463.748 538.664 461.581 534.331C454.648 521.331 422.581 503.564 396.581 512.231C374.048 520.464 416.948 537.364 445.981 558.598Z" fill="#423232"/>
<path d="M648.782 572.03C652.249 575.064 654.416 579.83 654.849 584.597L655.282 596.73C655.716 607.13 647.916 615.797 637.949 616.23C627.549 616.664 618.882 608.864 618.449 598.897L618.016 586.764C618.016 586.33 618.016 585.897 618.016 585.464C629.283 584.597 639.249 579.83 648.782 572.03Z" fill="#423232"/>
<path d="M471.115 592.832C471.115 593.265 471.115 593.265 471.115 593.698L471.548 604.965C471.981 614.498 464.615 622.732 455.082 623.165C445.548 623.598 437.315 616.232 436.881 606.698L436.448 595.432C436.015 591.098 437.748 587.198 439.915 584.165C449.448 589.798 459.848 591.098 471.115 592.832Z" fill="#423232"/>
<path d="M514.984 771.848C514.551 778.781 519.751 790.914 529.284 799.581C578.251 769.681 600.351 785.281 600.351 785.281C617.684 758.848 613.784 722.881 571.751 750.181C542.284 768.814 524.518 771.848 514.984 771.848Z" fill="#423232"/>
<path d="M529.284 799.582C539.684 808.682 555.284 814.315 576.517 805.648C586.484 801.748 594.284 793.948 600.35 785.282C600.35 785.282 578.25 769.682 529.284 799.582Z" fill="#FE9DAB"/>
<path d="M506.75 770.115C506.75 770.115 524.95 780.081 571.75 750.181C627.65 714.215 616.384 789.615 576.95 805.648C535.784 822.548 514.55 785.715 514.984 771.848" stroke="#423232" stroke-width="13" stroke-miterlimit="10" stroke-linecap="round" stroke-linejoin="round"/>
<path d="M600.35 785.282C600.35 785.282 578.25 769.682 529.284 799.582" stroke="#423232" stroke-width="13" stroke-miterlimit="10" stroke-linecap="round" stroke-linejoin="round"/>
<path d="M976.345 486.457C993.678 612.99 936.911 700.09 906.578 736.49C871.911 778.09 868.878 809.723 868.878 809.723C851.111 799.757 828.578 755.123 828.145 731.723C936.478 690.123 916.978 569.223 864.111 562.29C808.645 555.357 791.311 604.757 788.278 616.89C774.411 600.423 775.278 506.823 759.245 448.323C829.011 473.457 902.678 486.89 976.345 486.457Z" fill="#99807F"/>
<path d="M424.278 323.523C451.145 310.523 474.111 283.223 507.911 269.789C705.511 189.623 917.411 271.523 963.778 429.689C969.845 449.623 973.745 468.689 976.345 486.889C902.678 487.323 828.578 473.456 759.245 448.756C752.311 423.623 742.345 404.556 726.311 401.089C642.678 382.889 564.245 373.789 465.011 387.223C428.178 392.423 400.011 375.523 380.945 422.323C377.911 431.423 375.311 440.523 373.145 450.056C366.211 480.823 362.745 506.823 374.445 572.689C366.645 560.123 356.678 533.256 352.345 510.289C338.478 429.256 344.978 361.656 424.278 323.523Z" fill="#423232"/>
<path d="M369.244 468.256C364.911 489.056 338.478 487.322 334.578 466.522C328.944 436.189 326.345 399.789 331.111 358.622C353.645 166.222 544.744 101.222 507.911 229.489C507.911 229.489 558.178 148.889 671.278 144.556C768.345 141.089 709.411 209.989 709.411 209.989C709.411 209.989 828.144 166.656 955.978 231.656C1067.34 288.422 964.211 338.256 964.211 338.256C964.211 338.256 1048.71 382.889 1050.01 479.089C1050.88 551.022 818.178 554.056 729.778 501.622C683.845 474.322 662.178 427.089 615.378 399.356C533.478 350.389 512.244 460.889 468.478 420.156C417.344 373.356 380.511 410.622 369.244 468.256Z" fill="#423232"/>
<path opacity="0.6" d="M449.918 677.253C449.918 677.253 444.718 706.72 410.484 721.453C401.818 724.92 392.718 719.287 392.718 709.753C393.151 709.753 447.751 680.72 449.918 677.253Z" fill="#B7AEA9"/>
<path opacity="0.6" d="M532.251 606.187C532.251 606.187 504.518 578.453 490.651 575.42L527.484 584.087L532.251 606.187Z" fill="#B7AEA9"/>
<path opacity="0.6" d="M717.284 677.254C717.284 677.254 701.251 713.654 653.151 722.32C605.051 731.42 561.284 696.754 540.917 638.687C540.917 638.687 557.384 692.42 623.251 702.387C688.684 713.22 717.284 677.254 717.284 677.254Z" fill="#B7AEA9"/>
<path opacity="0.29" d="M639.718 482.687C700.818 482.687 750.651 533.82 751.084 596.22C751.084 625.687 740.251 652.554 722.484 672.054L565.184 513.02C584.684 493.954 610.684 482.687 639.718 482.687Z" fill="#DBC3ED"/>
<path opacity="0.23" d="M565.184 513.021L722.484 672.054C702.551 694.154 674.384 707.587 643.184 707.587C582.951 707.587 533.551 657.754 531.817 595.787C530.951 563.287 543.951 533.821 565.184 513.021Z" fill="#C4ADD8"/>
<path opacity="0.29" d="M386.218 482.687C432.584 482.687 471.584 533.82 473.318 596.22C474.184 621.354 468.551 644.32 459.018 662.954L321.651 526.887C335.951 500.02 359.351 482.687 386.218 482.687Z" fill="#DBC3ED"/>
<path opacity="0.23" d="M321.651 526.452L459.018 662.519C444.718 689.819 421.318 707.585 394.018 707.585C348.518 707.585 309.518 657.752 306.918 595.785C306.051 570.219 311.685 545.952 321.651 526.452Z" fill="#C4ADD8"/>
<path d="M531.818 596.22C533.118 658.187 582.951 708.02 643.185 708.02C703.418 708.02 751.518 658.187 751.518 596.22C751.085 533.82 701.251 482.687 640.151 482.687C579.051 482.687 530.085 533.82 531.818 596.22Z" stroke="#4EC2DD" stroke-width="13" stroke-miterlimit="10" stroke-linecap="round" stroke-linejoin="round"/>
<path d="M306.918 596.22C309.518 658.187 348.518 708.02 394.018 708.02C439.518 708.02 475.051 658.187 473.318 596.22C471.584 533.82 432.584 482.687 386.218 482.687C339.851 482.687 304.318 533.82 306.918 596.22Z" stroke="#4EC2DD" stroke-width="13" stroke-miterlimit="10" stroke-linecap="round" stroke-linejoin="round"/>
<path d="M750.218 584.087H811.751" stroke="#4EC2DD" stroke-width="13" stroke-miterlimit="10" stroke-linecap="round" stroke-linejoin="round"/>
<path d="M531.385 584.087C531.385 584.087 479.818 564.153 473.318 584.087" stroke="#4EC2DD" stroke-width="13" stroke-miterlimit="10" stroke-linecap="round" stroke-linejoin="round"/>
</svg>
