<svg width="1315" height="1642" viewBox="0 0 1315 1642" fill="none" xmlns="http://www.w3.org/2000/svg">
<path d="M1015.73 1197.33C1012.7 1199.5 1009.23 1201.67 1006.2 1203.83C1002.73 1206 999.698 1208.17 996.231 1209.9C993.198 1211.63 990.598 1213.37 987.564 1215.1C987.131 1215.53 986.698 1215.53 986.264 1215.97C976.298 1222.03 965.898 1227.67 955.498 1232.87C952.464 1234.6 948.998 1236.33 945.964 1237.63C945.964 1237.63 945.531 1238.07 945.098 1238.07C941.631 1239.8 938.164 1241.53 934.698 1243.27C927.764 1246.73 920.398 1249.77 913.464 1252.8C909.998 1254.53 906.098 1255.83 902.631 1257.13C899.164 1258.43 895.264 1260.17 891.798 1261.47C888.331 1262.77 884.431 1264.5 880.964 1265.8C880.964 1265.8 880.964 1265.8 880.531 1265.8C877.064 1267.1 873.164 1268.4 869.698 1269.7C861.898 1272.3 853.664 1274.9 845.864 1277.5C843.264 1278.37 840.231 1279.23 837.631 1280.1C829.398 1282.7 821.164 1284.87 812.931 1286.6C809.898 1287.47 806.864 1287.9 803.398 1288.77C795.598 1290.5 787.364 1292.23 779.564 1293.97C777.831 1294.4 776.531 1294.4 774.798 1294.83C772.198 1295.27 769.164 1295.7 766.564 1296.13C762.664 1296.57 759.198 1297.43 755.298 1297.87C753.564 1298.3 751.831 1298.3 750.098 1298.73C747.931 1299.17 745.331 1299.6 742.731 1299.6C735.798 1300.47 728.431 1301.33 721.498 1302.2C719.331 1302.63 716.731 1302.63 714.564 1303.07H714.131C711.098 1303.5 708.064 1303.5 705.031 1303.93C701.998 1304.37 698.964 1304.37 695.931 1304.37C694.198 1304.37 692.031 1304.8 690.298 1304.8C686.831 1304.8 683.798 1305.23 680.764 1305.23C676.431 1305.23 672.531 1305.67 668.198 1305.67C663.864 1305.67 659.964 1305.67 655.631 1305.67C652.598 1305.67 649.564 1305.67 646.531 1305.67C464.098 1303.07 299.431 1225.5 182.431 1102.43C182.431 1102.43 182.431 1102 181.998 1102C195.431 1075.57 245.264 1027.9 297.264 988.465C363.131 938.632 456.298 907.865 456.298 907.865C456.298 907.865 517.398 897.899 744.031 945.132C916.931 981.532 990.598 1129.3 1015.73 1197.33Z" fill="#FEE4BF"/>
<path d="M792.131 1065.16C783.031 1109.8 724.098 1136.23 624.865 1096.36C503.098 1046.96 456.298 907.865 456.298 907.865C449.798 808.198 434.631 722.831 434.631 722.831C575.465 710.698 741.865 875.365 741.865 875.365L760.931 956.831C762.665 963.765 766.131 969.831 771.331 974.165C780.431 989.765 798.198 1036.56 792.131 1065.16Z" fill="#FEE4BF"/>
<path d="M771.331 974.598C688.564 970.265 627.464 958.131 562.031 840.698C617.497 889.665 682.931 908.298 751.831 916.965L760.931 956.831C762.664 964.198 766.131 970.265 771.331 974.598Z" fill="#EFBDA5"/>
<path d="M942.498 452.432C950.298 488.832 954.198 518.298 932.964 615.365C911.731 712.432 952.464 809.498 850.198 898.332C781.298 958.132 660.831 969.398 564.631 903.965C532.131 881.865 502.231 851.098 477.964 810.798C458.898 779.165 436.798 749.265 412.098 721.965C377.864 684.698 336.698 609.732 357.064 477.132C389.998 261.332 603.631 236.632 729.731 260.465C855.831 284.298 921.264 356.232 942.498 452.432Z" fill="#FEE4BF"/>
<path d="M527.797 621.865C527.797 621.865 514.364 556.865 451.097 564.665C396.497 571.598 377.431 702.465 501.364 738.865" fill="#FEE4BF"/>
<path d="M497.465 679.499C497.465 679.499 481.865 669.532 483.598 652.199C486.198 631.832 483.598 619.265 474.065 615.365C450.231 605.399 445.465 633.132 446.331 636.599" stroke="#423232" stroke-width="13" stroke-miterlimit="10" stroke-linecap="round" stroke-linejoin="round"/>
<path d="M828.097 721.531C828.097 721.531 844.564 722.398 860.164 703.765C868.831 693.365 876.197 680.365 871.431 676.465C866.664 672.131 788.231 684.265 783.031 694.665C777.831 705.065 808.164 721.531 828.097 721.531Z" fill="#EFBDA5"/>
<path d="M841.098 575.932C841.098 575.932 841.965 617.099 868.398 663.032C880.098 683.399 862.331 716.765 823.765 722.399" stroke="#423232" stroke-width="13" stroke-miterlimit="10" stroke-linecap="round" stroke-linejoin="round"/>
<path opacity="0.42" d="M606.231 743.632C630.882 743.632 650.865 727.141 650.865 706.798C650.865 686.456 630.882 669.965 606.231 669.965C581.581 669.965 561.598 686.456 561.598 706.798C561.598 727.141 581.581 743.632 606.231 743.632Z" fill="#F2A5B2"/>
<path opacity="0.42" d="M926.031 670.832C924.731 695.098 925.164 718.932 923.431 742.765C904.364 738.432 890.498 724.132 890.498 707.232C890.498 689.032 905.664 674.298 926.031 670.832Z" fill="#F2A5B2"/>
<path d="M377.176 903.566C377.176 903.566 440.442 878.433 452.142 877.566L453.009 887.533C453.009 887.533 402.742 909.2 399.709 912.666C396.676 916.133 377.176 903.566 377.176 903.566Z" fill="#7E5D6D"/>
<path d="M1158.04 1466.03H62.5762C62.5762 1466.03 69.0762 1264.97 134.943 1121.53C184.776 1013.2 304.376 941.7 391.476 910.5C416.176 901.833 435.243 892.3 453.01 887.533C453.01 889.7 454.309 905.733 454.309 907.467C454.309 907.467 526.243 1006.7 686.576 1005.4C782.776 1004.97 755.909 942.567 755.909 942.567C764.143 940.833 771.943 938.667 779.743 936.067C782.343 935.2 800.543 927.833 802.709 926.967C858.609 941.7 927.076 983.3 1026.31 1066.5C1138.11 1160.53 1158.04 1466.03 1158.04 1466.03Z" fill="#E89D6B"/>
<mask id="mask0_26_635" style="mask-type:alpha" maskUnits="userSpaceOnUse" x="62" y="887" width="1097" height="580">
<path d="M1158.04 1466.03H62.5762C62.5762 1466.03 69.0762 1264.97 134.943 1121.53C184.776 1013.2 304.376 941.7 391.476 910.5C416.176 901.833 435.243 892.3 453.01 887.533C453.01 889.7 454.309 905.733 454.309 907.467C454.309 907.467 526.243 1006.7 686.576 1005.4C782.776 1004.97 755.909 942.567 755.909 942.567C764.143 940.833 771.943 938.667 779.743 936.067C782.343 935.2 800.543 927.833 802.709 926.967C858.609 941.7 927.076 983.3 1026.31 1066.5C1138.11 1160.53 1158.04 1466.03 1158.04 1466.03Z" fill="#E89D6B"/>
</mask>
<g mask="url(#mask0_26_635)">
<path d="M287.476 878C311.309 878.867 323.443 879.3 347.276 878.867C368.509 891.433 378.909 897.5 400.576 909.2C422.676 907.9 433.943 907.034 456.043 904.434C478.143 914.834 488.976 920.034 511.076 930C533.609 926.534 544.876 924.367 566.976 920.033C589.509 928.7 601.209 932.6 623.742 939.967C646.276 934.333 657.542 930.867 680.076 924.367C703.476 930.433 715.176 933.467 738.576 938.667C761.109 930.434 772.376 926.534 794.909 917.434C818.742 921.334 830.876 923.067 854.709 926.1C876.809 915.7 888.076 910.5 910.176 899.233C934.443 900.533 946.576 900.967 970.842 901.4C992.509 888.4 1003.34 881.9 1025.01 868.467C1052.31 866.3 1065.74 865 1093.04 861.967C1090.88 872.367 1090.01 877.567 1088.28 887.967C1065.74 890.567 1054.04 891.867 1031.51 893.6C1009.41 907.467 998.576 914.4 976.042 927.4C951.342 927.4 939.209 926.967 914.509 925.667C891.976 936.934 880.709 942.567 858.176 952.967C833.909 949.933 821.776 948.2 797.509 944.733C774.976 953.833 763.276 958.167 740.742 965.967C716.909 960.767 705.209 957.734 681.809 951.667C659.276 958.167 647.576 961.634 625.043 967.267C602.076 959.467 590.376 955.567 567.409 946.9C544.876 951.233 533.609 953.4 510.642 956.867C488.109 946.9 477.276 942.133 454.743 931.3C432.209 933.467 420.943 934.333 398.843 935.633C377.176 923.933 366.343 917.867 345.109 904.867C325.176 904.867 315.209 904.867 295.276 904C292.243 894.034 290.942 888.834 287.476 878Z" fill="#FFFF8D"/>
<path d="M281.409 988.067C305.243 988.5 316.943 988.5 341.209 987.633C362.876 999.767 373.709 1005.4 395.376 1016.67C417.476 1014.93 428.309 1013.63 450.409 1010.6C472.509 1020.57 483.776 1025.33 506.309 1034.43C528.409 1030.53 539.243 1027.93 561.776 1023.17C584.743 1030.97 596.443 1034.87 619.409 1041.8C641.509 1035.3 652.776 1032.27 674.876 1024.9C698.276 1030.53 710.409 1033.13 733.809 1037.9C755.909 1029.23 766.743 1024.9 788.843 1015.37C813.109 1018.83 824.809 1020.13 849.076 1022.3C870.743 1011.47 881.576 1005.83 903.243 994.133C927.509 995 940.076 995 964.343 994.567C985.576 981.567 995.976 974.634 1017.21 960.767C1044.51 958.167 1058.38 956.867 1085.68 952.967C1083.94 963.367 1083.51 968.567 1081.78 978.533C1058.81 981.567 1047.54 982.867 1025.01 985.033C1003.34 999.333 992.943 1006.27 971.276 1019.7C946.576 1020.13 934.009 1020.13 909.309 1019.27C887.209 1030.97 876.376 1036.6 854.276 1047.87C830.009 1045.7 817.443 1044.4 793.176 1040.93C771.076 1050.47 759.809 1054.8 737.276 1063.47C713.443 1058.7 701.309 1056.1 677.476 1050.47C654.943 1057.83 644.109 1060.87 621.576 1067.37C598.176 1060.43 586.476 1056.53 563.509 1048.73C540.976 1053.5 530.143 1056.1 507.609 1060C485.076 1050.9 473.376 1046.13 450.843 1035.73C428.743 1038.33 417.476 1039.63 395.376 1041.8C373.276 1030.53 362.443 1024.47 340.776 1012.33C320.843 1012.77 310.876 1013.2 291.376 1012.77C287.043 1003.23 285.309 998.033 281.409 988.067Z" fill="#FFFF8D"/>
<path d="M275.342 1096.4C298.742 1095.97 310.876 1095.53 334.709 1094.67C356.376 1106.37 367.642 1112 389.742 1122.4C411.409 1119.8 422.242 1118.5 443.909 1115.03C466.442 1124.57 477.709 1128.9 500.676 1137.57C522.342 1132.8 533.176 1130.63 555.276 1125C578.676 1132.37 590.376 1135.83 613.776 1142.33C635.442 1135.4 646.276 1131.93 667.942 1124.57C691.776 1129.77 703.909 1131.93 727.742 1136.27C749.409 1127.17 760.242 1122.83 781.476 1112.87C805.742 1115.47 817.876 1116.77 842.142 1118.5C863.376 1107.23 874.209 1101.6 895.009 1089.47C919.709 1089.47 931.842 1089.47 956.542 1088.6C977.342 1075.17 987.742 1068.23 1008.11 1054.37C1035.41 1051.33 1049.28 1049.6 1076.58 1045.27C1075.28 1055.23 1074.84 1060.43 1073.98 1070.83C1051.01 1074.3 1039.74 1076.03 1016.78 1078.63C995.976 1092.93 985.142 1100.3 964.342 1113.73C939.209 1114.6 926.642 1115.03 901.942 1114.6C880.276 1126.73 869.875 1132.37 848.209 1144.07C823.509 1142.33 811.376 1141.47 786.676 1138.43C765.009 1148.4 754.176 1153.17 732.076 1162.27C707.809 1158.37 695.676 1155.77 671.842 1150.57C649.742 1158.37 638.909 1161.83 616.809 1168.77C592.976 1162.27 581.276 1158.8 557.876 1151.43C535.776 1157.07 524.942 1159.67 502.842 1164C479.876 1155.33 468.176 1150.57 445.642 1141.03C423.542 1144.5 412.709 1145.8 390.609 1148.4C368.076 1137.57 357.242 1131.93 335.142 1120.23C315.642 1121.1 305.676 1121.53 286.176 1121.97C281.842 1112 279.676 1106.8 275.342 1096.4Z" fill="#FFFF8D"/>
<path d="M268.842 1204.3C292.242 1203.43 303.942 1202.57 327.342 1200.83C349.442 1212.1 360.709 1217.3 383.242 1227.27C404.476 1224.23 415.309 1222.5 436.976 1218.6C459.942 1227.7 471.642 1232.03 494.609 1239.83C515.842 1234.63 526.676 1232.03 548.342 1225.97C571.742 1232.9 583.876 1235.93 607.276 1241.57C628.509 1234.2 639.342 1230.3 660.576 1222.5C684.842 1226.83 696.542 1229 720.809 1232.47C742.042 1222.93 752.442 1218.17 773.676 1208.2C798.376 1210.37 810.509 1211.23 835.209 1212.53C856.009 1201.27 866.409 1195.2 887.209 1183.07C911.909 1182.63 924.476 1182.2 949.176 1180.9C969.542 1167.47 979.509 1160.53 999.442 1146.23C1027.18 1142.77 1041.04 1140.6 1068.34 1135.83C1067.48 1145.8 1067.48 1151 1066.61 1160.97C1043.64 1164.87 1032.38 1166.6 1009.41 1169.63C989.042 1184.37 978.642 1191.3 958.276 1205.17C933.142 1206.47 920.576 1206.9 895.442 1207.33C874.642 1219.9 863.809 1225.97 843.009 1237.23C818.309 1235.93 805.742 1235.5 781.042 1233.33C759.809 1243.73 748.976 1248.5 727.742 1258.03C703.042 1254.57 690.909 1252.4 666.642 1248.07C644.976 1256.3 634.142 1260.2 612.476 1267.57C588.642 1261.93 576.509 1258.47 552.676 1251.97C531.009 1258.03 520.176 1260.63 498.509 1265.83C475.109 1257.6 463.409 1253.7 440.009 1244.6C418.342 1248.5 407.509 1250.23 385.842 1253.27C362.876 1242.87 351.609 1237.67 329.509 1226.4C310.009 1228.13 300.476 1228.57 280.976 1229.43C276.209 1219.47 273.609 1214.27 268.842 1204.3Z" fill="#FFFF8D"/>
<path d="M262.776 1310.9C285.743 1309.17 297.443 1308.3 320.843 1305.7C343.376 1316.1 354.643 1321.3 377.609 1330.83C398.843 1327.37 409.243 1325.2 430.476 1320.87C453.876 1329.1 465.576 1333.43 488.976 1340.8C510.209 1335.17 520.609 1332.13 541.409 1325.63C565.243 1331.7 577.376 1334.73 601.209 1339.93C622.009 1332.13 632.409 1328.23 653.643 1319.57C677.909 1323.47 690.043 1325.2 714.743 1328.23C735.543 1318.27 745.509 1313.5 766.309 1303.1C791.009 1304.83 803.576 1305.27 828.276 1306.13C848.643 1294.43 858.609 1288.37 878.976 1275.8C904.109 1274.93 916.242 1274.5 941.376 1272.77C960.876 1258.9 970.843 1251.97 990.343 1237.67C1018.08 1233.77 1031.94 1231.6 1059.68 1226.4C1059.24 1236.37 1059.24 1241.13 1058.81 1251.1C1035.84 1255.43 1024.58 1257.17 1001.61 1260.63C981.676 1275.37 971.709 1282.73 951.776 1296.6C926.643 1298.77 913.643 1299.2 888.509 1300.07C868.143 1312.63 857.742 1319.13 837.376 1330.83C812.242 1330.4 799.676 1329.97 774.543 1328.23C753.743 1339.07 743.343 1343.83 722.543 1353.8C697.843 1350.77 685.276 1349.03 660.576 1345.13C639.343 1353.8 628.943 1357.7 607.709 1365.5C583.443 1360.3 571.309 1357.27 547.043 1351.2C525.809 1357.7 514.976 1360.73 493.743 1366.37C469.909 1359 458.209 1355.1 434.376 1346.43C413.143 1350.77 402.309 1352.93 381.076 1356.4C358.109 1346.87 346.409 1341.67 323.443 1331.27C304.376 1333.43 294.843 1334.3 275.776 1335.6C270.576 1326.07 267.976 1320.87 262.776 1310.9Z" fill="#FFFF8D"/>
<path d="M256.276 1416.63C279.243 1414.47 290.509 1413.17 313.476 1410.13C336.443 1420.1 348.143 1424.87 371.109 1433.97C391.909 1429.63 402.309 1427.47 423.109 1422.7C446.943 1430.5 458.643 1434.4 482.476 1441.33C503.276 1435.27 513.243 1431.8 534.043 1424.87C558.309 1430.5 570.443 1433.1 594.709 1437.87C615.076 1429.63 625.476 1425.3 645.843 1416.63C670.543 1420.1 682.676 1421.4 707.376 1424C727.743 1414.03 737.709 1408.83 757.642 1398C782.776 1399.3 794.909 1399.3 820.042 1399.73C839.976 1387.6 849.509 1381.53 869.443 1368.97C894.576 1367.67 907.143 1366.8 932.276 1364.63C951.343 1350.77 960.876 1343.4 979.943 1329.1C1007.68 1324.77 1021.98 1322.6 1049.71 1316.97C1049.71 1326.5 1049.71 1331.7 1050.14 1341.23C1027.18 1345.57 1015.91 1347.73 992.943 1351.2C973.443 1365.93 963.909 1373.3 944.409 1387.6C918.843 1390.2 906.276 1391.07 880.709 1392.37C860.776 1405.37 850.809 1411.43 830.876 1424C805.742 1424 792.743 1423.57 767.609 1422.7C747.243 1433.53 737.276 1439.17 716.476 1449.13C691.342 1446.97 678.776 1445.23 654.076 1442.2C633.276 1451.3 622.876 1455.63 602.509 1463.87C577.809 1459.1 565.676 1456.5 540.976 1450.87C520.176 1457.8 509.776 1461.27 488.976 1467.33C464.709 1460.4 453.009 1456.93 428.743 1449.13C407.943 1454.33 397.109 1456.5 376.309 1460.83C352.909 1451.73 341.209 1446.97 317.809 1437C298.743 1439.6 289.643 1440.9 270.576 1442.63C264.943 1431.8 261.909 1426.6 256.276 1416.63Z" fill="#FFFF8D"/>
<path d="M436.542 947.766C436.542 947.766 459.942 1034 640.642 1055.67C821.776 1076.9 823.509 962.933 783.642 898.8C743.776 834.666 468.609 850.266 439.142 881.033C409.676 911.8 436.542 947.766 436.542 947.766Z" fill="white"/>
</g>
<path d="M277.076 1466.03L257.576 1305.27" stroke="#544D4D" stroke-width="13" stroke-miterlimit="10" stroke-linecap="round" stroke-linejoin="round"/>
<path d="M1033.68 1250.67C1033.68 1250.67 1020.68 1282.3 1024.58 1313.93C1028.48 1345.57 1039.74 1391.93 1023.71 1466.03" stroke="#544D4D" stroke-width="13" stroke-miterlimit="10" stroke-linecap="round" stroke-linejoin="round"/>
<path d="M377.176 903.566C385.409 900.966 399.709 903.566 404.042 910.933C420.942 938.666 461.676 1019.7 478.576 1180.47C492.009 1306.13 471.642 1532.33 471.642 1532.33L51.3091 1512.4C51.3091 1512.4 63.8758 1298.77 100.709 1155.33C136.676 1016.23 231.142 953.833 377.176 903.566Z" fill="#755B7A"/>
<path d="M813.109 930C813.109 930 947.009 1181.77 908.009 1518.03H1197.48C1197.48 1518.03 1195.74 1289.67 1130.74 1144.93C1065.74 1000.2 838.243 919.167 838.243 919.167C838.243 919.167 823.943 926.1 813.109 930Z" fill="#755B7A"/>
<path d="M813.109 930L802.708 926.967C802.708 926.967 817.875 919.6 824.375 915.267L828.275 913.1C828.275 913.1 849.075 922.634 856.442 926.1C863.809 929.567 830.875 945.6 830.875 945.6C830.875 945.6 814.409 930.434 813.109 930Z" fill="#7E5D6D"/>
<path d="M473.809 1140.17C473.809 1140.17 459.076 1098.13 425.709 1060.87C394.942 1026.2 338.609 972.467 334.709 960.334C327.342 935.634 373.276 842.467 445.209 809.967C445.209 810.4 445.209 810.833 445.209 811.267C445.209 811.7 445.209 812.134 445.209 813C445.209 813.867 445.209 814.733 445.642 815.6C445.642 816.9 446.076 818.2 446.076 819.5C446.076 820.367 446.076 820.8 446.509 821.667C449.542 847.667 452.142 876.7 454.309 907.467V907.9C454.309 907.9 434.376 914.4 448.676 1013.63C452.576 1037.47 467.309 1079.93 473.809 1140.17Z" fill="#4B3C4F"/>
<path d="M888.942 1153.6C888.942 1153.6 859.909 1040.93 845.609 1004.97C831.309 969.433 804.442 929.133 803.142 926.966C820.042 919.166 835.209 909.2 848.642 897.5C862.076 885.8 872.909 874.1 882.009 862.4C892.842 874.533 957.409 947.333 964.342 987.2C972.142 1031.4 915.809 1050.47 888.942 1153.6Z" fill="#4B3C4F"/>
<path d="M683.943 619.439C673.543 619.005 665.743 610.339 666.61 599.939L667.043 587.805C667.476 577.405 676.143 569.605 686.543 570.472C696.943 570.905 704.743 579.572 703.876 589.972L703.443 602.105C703.01 612.072 694.343 619.872 683.943 619.439Z" fill="#423232"/>
<path d="M866.375 625.939C856.842 625.505 849.475 617.272 849.909 607.739L850.342 596.472C850.775 586.939 859.009 579.572 868.542 580.005C878.075 580.439 885.442 588.672 885.009 598.205L884.575 609.472C884.142 619.005 875.909 626.372 866.375 625.939Z" fill="#423232"/>
<path d="M725.977 594.306C725.977 594.306 714.71 578.272 695.21 575.239C679.177 572.639 661.41 580.439 658.81 589.539" stroke="#423232" stroke-width="13" stroke-miterlimit="10" stroke-linecap="round" stroke-linejoin="round"/>
<path d="M853.809 598.206C853.809 598.206 853.809 584.339 873.743 584.339C890.209 584.339 897.143 599.506 897.143 599.506" stroke="#423232" stroke-width="13" stroke-miterlimit="10" stroke-linecap="round" stroke-linejoin="round"/>
<path d="M743.743 524.539C752.843 527.572 761.943 519.339 760.209 509.372C759.343 504.172 757.176 498.972 752.843 495.072C739.843 483.372 686.109 472.973 653.609 488.139C625.009 502.006 702.143 510.672 743.743 524.539Z" fill="#423232"/>
<path d="M873.308 531.473C865.941 534.073 858.141 526.273 859.441 517.173C859.874 512.406 861.608 507.639 865.074 504.173C875.474 493.773 911.008 485.539 933.541 501.573C953.041 515.006 907.108 518.906 873.308 531.473Z" fill="#423232"/>
<path d="M820.997 777.919C820.997 777.919 765.964 752.352 739.531 766.219" stroke="#423232" stroke-width="13" stroke-miterlimit="10" stroke-linecap="round" stroke-linejoin="round"/>
<path d="M940.439 442.654C939.139 436.154 937.405 429.221 935.238 422.721C933.072 416.221 927.872 410.588 920.939 409.288C898.405 405.388 876.738 366.388 845.538 362.054C746.305 348.621 680.005 356.854 586.839 393.254C490.639 430.521 545.239 585.654 524.872 609.488C521.405 597.354 504.505 547.954 449.039 554.888C396.605 561.388 376.672 682.721 485.005 724.321C484.139 748.154 441.239 770.688 406.572 729.088C371.905 687.488 302.572 579.588 349.372 421.854C396.172 264.121 608.072 181.788 805.239 261.954C839.039 275.821 859.405 310.054 888.872 315.688C1163.17 368.121 946.939 473.854 940.439 442.654Z" fill="#423232"/>
<path d="M485.439 724.754C485.439 724.754 484.572 760.287 448.172 826.154C448.172 826.154 439.505 789.754 420.439 756.387C401.805 723.02 361.505 684.454 338.972 614.687C316.439 544.92 361.505 600.387 382.739 629.42C403.539 658.02 417.405 729.087 485.439 724.754Z" fill="#423232"/>
<path d="M845.538 390.655C845.538 390.655 766.239 317.855 730.272 411.021C694.305 504.188 569.505 632.021 465.939 483.388C362.372 334.755 517.939 216.022 679.572 264.122C842.072 312.655 843.805 331.288 845.538 390.655Z" fill="#423232"/>
<path d="M845.538 390.655C845.538 390.655 923.972 537.555 1007.17 472.121C1081.27 413.621 1066.54 275.821 953.438 243.755C849.438 214.288 838.172 268.021 734.172 210.821C630.172 153.621 441.672 191.755 406.572 325.655C406.572 325.655 305.172 361.188 301.272 483.821C297.372 606.455 393.572 713.055 393.572 713.055C393.572 713.055 336.372 503.321 444.272 472.121C552.172 440.921 582.072 333.021 653.572 333.021C725.072 333.021 800.038 324.355 845.538 390.655Z" fill="#423232"/>
<path opacity="0.6" d="M865.083 677.253C865.083 677.253 870.283 706.72 904.516 721.453C913.183 724.92 922.283 719.287 922.283 709.753C921.849 709.753 867.249 680.72 865.083 677.253Z" fill="#B7AEA9"/>
<path opacity="0.6" d="M782.75 606.187C782.75 606.187 810.483 578.453 824.35 575.42L787.516 584.087L782.75 606.187Z" fill="#B7AEA9"/>
<path opacity="0.6" d="M597.716 677.254C597.716 677.254 613.75 713.654 661.85 722.321C709.95 731.421 753.716 696.754 774.083 638.687C774.083 638.687 757.616 692.421 691.75 702.387C626.316 713.221 597.716 677.254 597.716 677.254Z" fill="#B7AEA9"/>
<path opacity="0.29" d="M675.283 482.687C614.183 482.687 564.349 533.821 563.916 596.221C563.916 625.687 574.749 652.554 592.516 672.054L749.816 513.021C730.316 493.954 704.316 482.687 675.283 482.687Z" fill="#DBC3ED"/>
<path opacity="0.23" d="M749.817 513.021L592.517 672.054C612.45 694.154 640.617 707.587 671.817 707.587C732.05 707.587 781.45 657.754 783.183 595.787C784.05 563.287 771.05 533.821 749.817 513.021Z" fill="#C4ADD8"/>
<path opacity="0.29" d="M928.783 482.687C882.416 482.687 843.416 533.821 841.683 596.221C840.816 621.354 846.449 644.321 855.983 662.954L993.349 526.887C979.049 500.021 955.649 482.687 928.783 482.687Z" fill="#DBC3ED"/>
<path opacity="0.23" d="M993.349 526.453L855.982 662.52C870.282 689.82 893.682 707.586 920.982 707.586C966.482 707.586 1005.48 657.753 1008.08 595.786C1008.95 570.22 1003.32 545.953 993.349 526.453Z" fill="#C4ADD8"/>
<path d="M783.182 596.221C781.882 658.187 732.049 708.021 671.816 708.021C611.582 708.021 563.482 658.187 563.482 596.221C563.916 533.821 613.749 482.687 674.849 482.687C735.949 482.687 784.916 533.821 783.182 596.221Z" stroke="#4EC2DD" stroke-width="13" stroke-miterlimit="10" stroke-linecap="round" stroke-linejoin="round"/>
<path d="M1008.08 596.221C1005.48 658.187 966.483 708.021 920.983 708.021C875.483 708.021 839.949 658.187 841.683 596.221C843.416 533.821 882.416 482.687 928.783 482.687C975.149 482.687 1010.68 533.821 1008.08 596.221Z" stroke="#4EC2DD" stroke-width="13" stroke-miterlimit="10" stroke-linecap="round" stroke-linejoin="round"/>
<path d="M564.783 584.087H503.25" stroke="#4EC2DD" stroke-width="13" stroke-miterlimit="10" stroke-linecap="round" stroke-linejoin="round"/>
<path d="M783.616 584.087C783.616 584.087 835.182 564.153 841.682 584.087" stroke="#4EC2DD" stroke-width="13" stroke-miterlimit="10" stroke-linecap="round" stroke-linejoin="round"/>
</svg>
