<svg width="49" height="49" viewBox="0 0 49 49" fill="none" xmlns="http://www.w3.org/2000/svg">
<rect width="49" height="49" rx="24.5" fill="#D08770" fill-opacity="0.3"/>
<path d="M24.4999 27.9167C24.4999 24.5 27.1922 23.9282 28.1193 23.0034C29.0494 22.0756 29.6249 20.7925 29.6249 19.375C29.6249 16.5445 27.3304 14.25 24.4999 14.25C22.9694 14.25 21.5956 14.9209 20.6565 15.9847C20.2223 16.4765 19.881 17.0524 19.6602 17.6848" stroke="#D08770" stroke-width="2" stroke-linecap="round"/>
<path fill-rule="evenodd" clip-rule="evenodd" d="M24.5001 34.75C25.4436 34.75 26.2084 33.9852 26.2084 33.0417C26.2084 32.0982 25.4436 31.3334 24.5001 31.3334C23.5566 31.3334 22.7917 32.0982 22.7917 33.0417C22.7917 33.9852 23.5566 34.75 24.5001 34.75Z" fill="#D08770"/>
</svg>
