<svg width="24" height="23" viewBox="0 0 24 23" fill="none" xmlns="http://www.w3.org/2000/svg">
<path d="M10.0979 2.61804C10.6966 0.775416 13.3034 0.775409 13.9021 2.61803L15.4207 7.2918L20.335 7.2918C22.2724 7.2918 23.078 9.77103 21.5106 10.9098L17.5348 13.7984L19.0534 18.4721C19.6521 20.3148 17.5432 21.847 15.9757 20.7082L12 17.8197L8.02426 20.7082M10.0979 2.61804L8.02426 20.7082M10.0979 2.61804L8.57929 7.2918H3.66501C1.72756 7.2918 0.922008 9.77103 2.48944 10.9098L6.46517 13.7984L4.94658 18.4721C4.34787 20.3148 6.45684 21.847 8.02426 20.7082M10.0979 2.61804L8.02426 20.7082" fill="#E03F1B" stroke="#1D1D1F" stroke-width="2"/>
</svg>
