<svg width="1315" height="1642" viewBox="0 0 1315 1642" fill="none" xmlns="http://www.w3.org/2000/svg">
<path d="M299.269 1197.33C302.303 1199.5 305.769 1201.67 308.803 1203.83C312.269 1206 315.303 1208.17 318.769 1209.9C321.803 1211.63 324.403 1213.37 327.436 1215.1C327.869 1215.53 328.303 1215.53 328.736 1215.97C338.703 1222.03 349.103 1227.67 359.503 1232.87C362.536 1234.6 366.003 1236.33 369.036 1237.63C369.036 1237.63 369.469 1238.07 369.903 1238.07C373.369 1239.8 376.836 1241.53 380.303 1243.27C387.236 1246.73 394.603 1249.77 401.536 1252.8C405.003 1254.53 408.903 1255.83 412.369 1257.13C415.836 1258.43 419.736 1260.17 423.203 1261.47C426.669 1262.77 430.569 1264.5 434.036 1265.8C434.036 1265.8 434.036 1265.8 434.469 1265.8C437.936 1267.1 441.836 1268.4 445.303 1269.7C453.103 1272.3 461.336 1274.9 469.136 1277.5C471.736 1278.37 474.769 1279.23 477.369 1280.1C485.603 1282.7 493.836 1284.87 502.069 1286.6C505.103 1287.47 508.136 1287.9 511.603 1288.77C519.403 1290.5 527.636 1292.23 535.436 1293.97C537.169 1294.4 538.469 1294.4 540.203 1294.83C542.803 1295.27 545.836 1295.7 548.436 1296.13C552.336 1296.57 555.803 1297.43 559.703 1297.87C561.436 1298.3 563.169 1298.3 564.903 1298.73C567.069 1299.17 569.669 1299.6 572.269 1299.6C579.203 1300.47 586.569 1301.33 593.503 1302.2C595.669 1302.63 598.269 1302.63 600.436 1303.07H600.869C603.903 1303.5 606.936 1303.5 609.969 1303.93C613.003 1304.37 616.036 1304.37 619.069 1304.37C620.803 1304.37 622.969 1304.8 624.703 1304.8C628.169 1304.8 631.203 1305.23 634.236 1305.23C638.569 1305.23 642.469 1305.67 646.803 1305.67C651.136 1305.67 655.036 1305.67 659.369 1305.67C662.403 1305.67 665.436 1305.67 668.469 1305.67C850.903 1303.07 1015.57 1225.5 1132.57 1102.43C1132.57 1102.43 1132.57 1102 1133 1102C1119.57 1075.57 1069.74 1027.9 1017.74 988.465C951.869 938.632 858.703 907.865 858.703 907.865C858.703 907.865 797.603 897.899 570.969 945.132C398.069 981.532 324.403 1129.3 299.269 1197.33Z" fill="#FEE4BF"/>
<path d="M522.869 1065.16C531.969 1109.8 590.903 1136.23 690.136 1096.36C811.902 1046.96 858.702 907.865 858.702 907.865C865.202 808.198 880.369 722.831 880.369 722.831C739.536 710.698 573.136 875.365 573.136 875.365L554.069 956.831C552.336 963.765 548.869 969.831 543.669 974.165C534.569 989.765 516.803 1036.56 522.869 1065.16Z" fill="#FEE4BF"/>
<path d="M543.67 974.598C626.436 970.265 687.536 958.131 752.97 840.698C697.503 889.665 632.07 908.298 563.17 916.965L554.07 956.831C552.336 964.198 548.87 970.265 543.67 974.598Z" fill="#EFBDA5"/>
<path d="M372.503 452.432C364.703 488.832 360.803 518.298 382.036 615.365C403.269 712.432 362.536 809.498 464.803 898.332C533.703 958.132 654.169 969.398 750.369 903.965C782.869 881.865 812.769 851.098 837.036 810.798C856.103 779.165 878.203 749.265 902.903 721.965C937.136 684.698 978.303 609.732 957.936 477.132C925.003 261.332 711.369 236.632 585.269 260.465C459.169 284.298 393.736 356.232 372.503 452.432Z" fill="#FEE4BF"/>
<path d="M787.203 621.865C787.203 621.865 800.636 556.865 863.903 564.665C918.503 571.598 937.57 702.465 813.636 738.865" fill="#FEE4BF"/>
<path d="M817.536 679.499C817.536 679.499 833.136 669.532 831.402 652.199C828.802 631.832 831.402 619.265 840.936 615.365C864.769 605.399 869.536 633.132 868.669 636.599" stroke="#423232" stroke-width="13" stroke-miterlimit="10" stroke-linecap="round" stroke-linejoin="round"/>
<path d="M486.903 721.531C486.903 721.531 470.436 722.398 454.836 703.765C446.17 693.365 438.803 680.365 443.57 676.465C448.336 672.131 526.77 684.265 531.97 694.665C537.17 705.065 506.836 721.531 486.903 721.531Z" fill="#EFBDA5"/>
<path d="M473.902 575.932C473.902 575.932 473.036 617.099 446.602 663.032C434.902 683.399 452.669 716.765 491.236 722.399" stroke="#423232" stroke-width="13" stroke-miterlimit="10" stroke-linecap="round" stroke-linejoin="round"/>
<path opacity="0.42" d="M708.769 743.632C684.119 743.632 664.136 727.141 664.136 706.798C664.136 686.456 684.119 669.965 708.769 669.965C733.419 669.965 753.402 686.456 753.402 706.798C753.402 727.141 733.419 743.632 708.769 743.632Z" fill="#F2A5B2"/>
<path opacity="0.42" d="M388.969 670.832C390.269 695.098 389.836 718.932 391.569 742.765C410.636 738.432 424.503 724.132 424.503 707.232C424.503 689.032 409.336 674.298 388.969 670.832Z" fill="#F2A5B2"/>
<path d="M156.072 1465.49H1251.54C1251.54 1465.49 1245.04 1264.42 1179.17 1120.99C1129.34 1012.65 1011.91 952.421 924.372 921.221C899.672 912.554 877.139 906.054 859.805 901.287C859.805 903.454 859.372 905.187 859.372 907.354C859.372 907.354 812.572 1046.45 690.805 1095.85C591.572 1136.15 532.639 1109.29 523.539 1064.65C517.905 1036.05 535.672 989.254 544.772 974.087C549.972 969.754 553.439 963.254 555.172 956.754L558.639 942.454C550.405 940.721 542.605 938.554 534.805 935.954C532.205 935.087 530.039 934.221 527.439 933.354C471.539 948.087 387.472 983.187 288.239 1066.39C176.005 1159.99 156.072 1465.49 156.072 1465.49Z" fill="#BEE3EB"/>
<path d="M728.506 1140.92C878.006 1073.75 936.073 953.721 924.806 921.221C924.806 921.221 924.806 920.787 924.373 920.354C916.573 904.321 904.006 891.321 888.406 882.221C879.739 877.021 870.206 872.254 862.406 869.654C861.972 875.72 860.239 894.787 859.806 901.287C859.806 903.454 859.373 905.187 859.373 907.354C859.373 907.354 831.639 1010.92 709.873 1060.32C610.639 1100.62 549.106 1074.19 542.606 1029.12C535.239 979.287 563.406 943.32 563.406 943.32C555.173 941.587 542.173 938.554 534.373 935.954C515.306 958.921 495.806 981.887 488.439 1042.55C478.039 1129.65 573.806 1210.69 728.506 1140.92Z" fill="white"/>
<path d="M1037.04 1465.49L1056.54 1304.72" stroke="#544D4D" stroke-width="13" stroke-miterlimit="10" stroke-linecap="round" stroke-linejoin="round"/>
<path d="M280.439 1250.12C280.439 1250.12 293.439 1281.75 289.539 1313.39C285.639 1345.02 274.372 1391.39 290.405 1465.49" stroke="#544D4D" stroke-width="13" stroke-miterlimit="10" stroke-linecap="round" stroke-linejoin="round"/>
<path d="M569.198 526.549C559.784 527.849 552.509 517.882 555.933 508.349C557.644 503.149 560.64 498.382 565.347 495.349C579.896 486.249 634.241 485.382 662.912 506.182C688.159 525.249 611.99 520.482 569.198 526.549Z" fill="#423232"/>
<path d="M450.667 531.316C458.37 531.316 463.077 521.35 459.226 513.116C457.086 508.783 454.091 504.883 449.811 502.716C436.546 496.216 401.029 500.116 385.196 522.216C371.075 541.716 415.15 530.883 450.667 531.316Z" fill="#423232"/>
<path d="M584.177 581.149C611.563 567.283 654.783 577.683 654.783 577.683" stroke="#423232" stroke-width="13" stroke-miterlimit="10" stroke-linecap="round" stroke-linejoin="round"/>
<path d="M415.147 589.816C415.147 589.816 426.273 577.683 467.353 587.216" stroke="#423232" stroke-width="13" stroke-miterlimit="10" stroke-linecap="round" stroke-linejoin="round"/>
<path d="M514.816 776.042C514.383 790.342 535.616 826.742 576.783 809.842C616.216 793.808 627.916 718.408 571.583 754.375C542.116 773.008 524.349 776.042 514.816 776.042Z" fill="white"/>
<path d="M506.583 774.308C506.583 774.308 524.783 784.275 571.583 754.375C627.483 718.408 616.217 793.808 576.783 809.842C535.617 826.742 514.383 789.908 514.816 776.042" stroke="#423232" stroke-width="13" stroke-miterlimit="10" stroke-linecap="round" stroke-linejoin="round"/>
<path d="M609.716 765.208C609.716 765.208 580.25 784.709 571.583 782.975C562.483 781.675 563.783 794.242 522.616 795.542" stroke="#423232" stroke-width="13" stroke-miterlimit="10" stroke-linecap="round" stroke-linejoin="round"/>
<path d="M367.751 445.323C369.051 438.823 370.784 431.89 372.951 425.39C375.118 418.89 380.318 413.257 387.251 411.957C409.784 408.057 431.451 369.057 462.651 364.723C561.884 351.29 628.184 359.523 721.351 395.923C817.551 433.19 714.418 567.957 783.318 612.157C786.784 600.023 803.684 550.623 859.151 557.557C911.584 564.057 931.517 685.39 823.184 726.99C870.417 804.123 866.951 773.357 901.618 731.757C936.284 690.157 1005.62 582.257 958.818 424.523C912.018 266.79 700.118 184.457 502.951 264.623C469.151 278.49 448.784 312.723 419.318 318.357C145.018 370.79 361.251 476.523 367.751 445.323Z" fill="#423232"/>
<path d="M634.251 363.423C634.251 363.423 671.084 352.59 693.184 410.223C715.284 467.857 792.418 547.157 856.551 454.857C920.684 362.99 824.484 289.323 724.384 319.223C624.284 349.123 635.551 326.59 634.251 363.423Z" fill="#423232"/>
<path d="M570.551 321.39C570.551 321.39 473.051 383.357 408.918 359.09C368.618 343.923 323.118 288.023 354.751 246.423C392.451 196.59 509.018 234.29 574.018 213.49C671.518 182.29 822.751 161.49 893.818 278.49C911.584 307.957 927.618 337.857 952.751 361.257C978.751 385.523 1004.75 424.957 1006.92 486.49C1010.82 609.123 914.618 715.723 914.618 715.723C914.618 715.723 971.818 505.99 863.918 474.79C756.018 443.59 726.118 335.69 654.618 335.69C583.118 335.69 616.484 255.09 570.551 321.39Z" fill="#423232"/>
<path d="M475.651 376.424C475.651 376.424 397.217 474.357 338.284 468.724C279.351 463.091 213.051 336.557 375.117 293.224C537.184 249.891 475.651 376.424 475.651 376.424Z" fill="#423232"/>
<path d="M634.251 363.424C634.251 363.424 582.684 490.824 445.751 505.99C308.384 521.59 252.918 270.257 462.651 246.424C672.384 222.59 634.251 363.424 634.251 363.424Z" fill="#423232"/>
<path d="M743.884 303.623C743.884 303.623 711.817 449.223 644.217 455.723C576.617 462.223 594.817 274.157 683.217 261.157C771.617 248.157 743.884 303.623 743.884 303.623Z" fill="#423232"/>
<path d="M837.842 636.126C837.842 636.126 872.509 630.926 869.909 679.459C868.609 704.159 868.609 717.593 869.042 724.526C869.475 729.293 866.442 733.626 862.109 735.359C856.909 737.526 851.275 735.359 848.675 730.159C844.775 723.226 840.442 713.693 840.442 705.893C840.442 692.893 826.575 681.193 826.575 681.193C826.575 681.193 839.142 670.359 837.842 636.126Z" fill="white"/>
<path d="M732.975 1471.59C736.442 1467.69 872.509 1234.99 852.142 1147.46C838.275 1087.23 856.475 1017.89 872.509 956.793C879.009 931.66 885.075 908.26 888.542 887.46C894.609 851.493 890.275 817.26 875.542 785.627C859.509 750.093 862.109 719.327 862.109 718.893L853.442 718.027C853.442 719.327 850.842 751.827 867.742 789.093C881.609 818.993 885.509 851.927 879.875 886.16C876.409 906.527 870.342 929.927 863.842 955.06C847.375 1017.03 829.175 1087.66 843.475 1150.06C862.542 1233.26 726.909 1465.96 726.042 1466.83L732.975 1471.59Z" fill="white"/>
<path d="M868.608 704.592C868.175 714.126 868.608 720.626 868.608 724.526C869.041 729.292 866.008 733.626 861.675 735.359C856.475 737.526 850.841 735.359 848.241 730.159C844.341 723.226 840.008 713.692 840.008 705.892C840.008 705.459 840.008 704.592 840.008 704.159C849.108 707.626 859.508 710.226 868.608 704.592Z" fill="#E5E5E5"/>
<path d="M460.842 992.76C463.875 1012.69 464.309 1044.33 465.175 1081.16C466.475 1152.23 508.509 1429.13 528.875 1472.89L536.675 1469.43C517.175 1426.96 475.142 1151.36 473.842 1081.16C472.975 1044.33 472.542 1012.26 469.509 991.46C463.009 947.693 467.775 914.76 470.375 900.893C469.075 899.593 467.775 898.726 466.475 897.426C465.175 896.56 464.309 895.26 463.009 894.393C460.409 905.66 453.042 941.626 460.842 992.76Z" fill="white"/>
</svg>
